<svg width="16" height="15" viewBox="0 0 16 15" fill="none" xmlns="http://www.w3.org/2000/svg">
<path d="M8.27604 1.96762C7.47331 1.22951 6.42262 0.819859 5.33213 0.819824C4.75495 0.820425 4.18358 0.935164 3.65091 1.15744C3.11824 1.37971 2.63478 1.70513 2.22836 2.11496C0.49488 3.85582 0.495616 6.5787 2.22984 8.31219L7.63141 13.7138C7.75665 13.934 7.99829 14.0762 8.27604 14.0762C8.39008 14.0751 8.50227 14.0473 8.6036 13.995C8.70494 13.9426 8.79259 13.8673 8.85951 13.7749L14.3222 8.31219C16.0565 6.57797 16.0565 3.85582 14.3208 2.11202C13.9145 1.70293 13.4315 1.37818 12.8993 1.15642C12.3672 0.934655 11.7964 0.820266 11.2199 0.819824C10.1295 0.820002 9.07883 1.22964 8.27604 1.96762ZM13.279 3.15373C14.4305 4.3111 14.4313 6.119 13.2805 7.27048L8.27604 12.275L3.27155 7.27048C2.1208 6.119 2.12154 4.3111 3.27007 3.15668C3.82998 2.59972 4.56227 2.29325 5.33213 2.29325C6.102 2.29325 6.83134 2.59972 7.38682 3.1552L7.75518 3.52356C7.82354 3.59203 7.90473 3.64636 7.9941 3.68342C8.08347 3.72049 8.17928 3.73956 8.27604 3.73956C8.37279 3.73956 8.4686 3.72049 8.55797 3.68342C8.64734 3.64636 8.72853 3.59203 8.79689 3.52356L9.16525 3.1552C10.2792 2.0435 12.1666 2.04645 13.279 3.15373Z" fill="black"/>
</svg>
