<svg width="152" height="68" viewBox="0 0 152 68" fill="none" xmlns="http://www.w3.org/2000/svg">
<rect x="0.0703125" y="0.70166" width="86.0271" height="33.4362" fill="#FCDF51"/>
<path d="M23.5617 20.243C23.5617 20.6809 23.374 21.0562 23.0195 21.369C22.665 21.6818 22.1958 21.8382 21.6328 21.8382C21.2783 21.8382 20.9238 21.7861 20.5693 21.6714C20.2148 21.5671 19.9125 21.442 19.6831 21.296C19.4433 21.1501 19.2139 20.9832 19.0054 20.7956C18.7968 20.6079 18.6509 20.4828 18.5779 20.4098C18.5049 20.3472 18.4528 20.2847 18.4319 20.243L16.086 22.6932L16.3154 22.9538C16.4718 23.1415 16.722 23.35 17.0661 23.6003C17.3997 23.8505 17.7959 24.1007 18.2338 24.351C18.6717 24.6012 19.2347 24.8201 19.9229 24.9974C20.611 25.1746 21.32 25.258 22.0603 25.258C23.8641 25.258 25.3133 24.7889 26.4081 23.8401C27.4924 22.9017 28.045 21.7339 28.045 20.3472C28.045 19.6382 27.9095 19.0126 27.6593 18.4705C27.3986 17.9283 27.065 17.5008 26.6583 17.1776C26.2517 16.8648 25.8034 16.5833 25.3029 16.3539C24.8024 16.1245 24.3124 15.9369 23.8224 15.7909C23.3323 15.6449 22.884 15.4989 22.4774 15.3634C22.0707 15.2279 21.7371 15.061 21.4868 14.8629C21.2262 14.6648 21.1011 14.425 21.1011 14.1539C21.1011 13.8203 21.247 13.5179 21.5598 13.2573C21.8622 13.007 22.248 12.8715 22.7067 12.8715C23.1446 12.8715 23.5721 12.9862 23.9996 13.2051C24.4271 13.4345 24.7086 13.6118 24.8441 13.7369C24.9797 13.862 25.084 13.9663 25.1569 14.0497L27.5133 11.5891L27.3152 11.3805C27.2005 11.2241 27.0024 11.0469 26.7105 10.8384C26.4185 10.6298 26.0745 10.4213 25.6887 10.2128C25.3029 10.0042 24.8129 9.827 24.2081 9.68103C23.6034 9.53506 22.957 9.45165 22.2793 9.45165C20.6215 9.45165 19.266 9.92083 18.2025 10.8384C17.139 11.7559 16.6177 12.8298 16.6177 14.0497C16.6177 14.7587 16.7428 15.3843 17.0035 15.9264C17.2537 16.4686 17.5874 16.9065 17.994 17.2193C18.4006 17.5425 18.849 17.8136 19.339 18.043C19.8291 18.2724 20.3191 18.4705 20.8196 18.6164C21.32 18.7624 21.7684 18.9084 22.175 19.0335C22.5816 19.169 22.9153 19.3359 23.1759 19.534C23.4262 19.7425 23.5617 19.9719 23.5617 20.243ZM31.1521 13.1947C31.1521 13.6222 31.027 13.9558 30.7976 14.2061C30.5578 14.4563 30.245 14.5814 29.8592 14.5814H29.1085V17.7823H30.7142V20.9832C30.7142 22.3178 31.0478 23.3187 31.6943 24.0069C32.3511 24.695 33.2687 25.0391 34.4468 25.0391C35.2393 25.0495 35.9482 24.9453 36.5843 24.7263V21.6297L36.4487 21.6714C36.3549 21.7131 36.2193 21.7548 36.0421 21.7861C35.8648 21.8278 35.6876 21.8382 35.5103 21.8382C35.1558 21.8382 34.8743 21.7444 34.6658 21.5567C34.4573 21.369 34.3426 21.1083 34.3426 20.7851V17.7928H36.48V14.5919H34.3426V11.391H31.1417L31.1521 13.1947ZM47.6779 24.8306V18.3349C47.6779 17.188 47.2192 16.2079 46.3225 15.3843C45.4154 14.571 44.2685 14.1539 42.8714 14.1539C42.3188 14.1539 41.787 14.2374 41.2761 14.3833C40.7757 14.5293 40.3586 14.6961 40.0458 14.8734C39.733 15.0506 39.4411 15.2487 39.17 15.4781C38.8989 15.7075 38.7321 15.8743 38.6591 15.9681C38.5965 16.062 38.534 16.135 38.4923 16.1871L40.3065 18.1055L40.5567 17.824C40.7235 17.6572 40.9946 17.4904 41.37 17.3027C41.7453 17.1255 42.1415 17.0316 42.5481 17.0316C43.0278 17.0316 43.4031 17.1463 43.6533 17.3548C43.914 17.5738 44.0391 17.824 44.0391 18.1055L41.0467 18.7416C40.025 18.9605 39.243 19.3567 38.68 19.9302C38.1274 20.4932 37.8458 21.2126 37.8458 22.0676C37.8458 22.8913 38.1691 23.5898 38.8155 24.1737C39.4619 24.7576 40.2752 25.0495 41.2657 25.0495C41.8079 25.0495 42.3188 24.914 42.7984 24.6637C43.278 24.4135 43.5804 24.205 43.7263 24.0486C43.8723 23.8818 43.9766 23.7566 44.0391 23.6628V24.841L47.6779 24.8306ZM42.4439 22.2761C41.8079 22.2761 41.4847 21.9842 41.4742 21.4211C41.4742 21.2126 41.5681 21.0145 41.7557 20.8268C41.9434 20.6392 42.1728 20.514 42.4439 20.4619L44.0391 20.1387V20.4619C44.0391 20.9832 43.8827 21.4211 43.5699 21.7652C43.2571 22.0989 42.8818 22.2761 42.4439 22.2761ZM53.8712 14.3625H50.2428V24.8306H53.8712V19.5965C53.8712 18.9709 54.0276 18.4809 54.3508 18.116C54.6636 17.7615 55.0807 17.5738 55.5811 17.5738C56.019 17.5738 56.3735 17.7302 56.655 18.0326C56.9261 18.3454 57.0721 18.7624 57.0721 19.2837V24.8306H60.7005V18.6373C60.7005 17.3027 60.3356 16.2288 59.6266 15.3947C58.9071 14.571 57.9896 14.1539 56.8636 14.1539C56.2901 14.1539 55.748 14.2999 55.2266 14.571C54.7053 14.8525 54.3612 15.0715 54.2153 15.2383C54.0693 15.4051 53.9546 15.5407 53.8712 15.6553V14.3625ZM70.5326 19.5965C70.5326 20.2221 70.324 20.7538 69.9174 21.1918C69.5108 21.6297 69.0416 21.8382 68.4994 21.8382C67.9573 21.8382 67.4881 21.6297 67.0814 21.1918C66.6748 20.7538 66.4767 20.2221 66.4767 19.5965C66.4767 18.9709 66.6748 18.4496 67.0814 18.0117C67.4881 17.5738 67.9573 17.3548 68.4994 17.3548C69.0416 17.3548 69.5108 17.5738 69.9174 18.0117C70.324 18.4496 70.5326 18.9709 70.5326 19.5965ZM70.5326 15.6449L70.2302 15.2591C70.0321 15.0298 69.688 14.7795 69.1876 14.5293C68.6871 14.2791 68.1345 14.1539 67.5402 14.1539C66.2265 14.1539 65.1004 14.6753 64.1516 15.7075C63.2028 16.7397 62.7336 18.043 62.7336 19.6069C62.7336 21.1709 63.2028 22.4742 64.1516 23.496C65.1004 24.5282 66.2265 25.0391 67.5402 25.0391C67.926 25.0391 68.2909 24.987 68.635 24.8827C68.9686 24.7784 69.2501 24.6637 69.4587 24.5282C69.6672 24.3927 69.8757 24.2363 70.0634 24.0694C70.2511 23.9026 70.3658 23.7775 70.4179 23.7149C70.4596 23.6524 70.5013 23.6003 70.5326 23.5585V24.841H74.161V9.88955H70.5326V15.6449Z" fill="black"/>
<rect x="0.0703125" y="34.1378" width="151.164" height="33.1832" fill="#1862B2"/>
<path d="M17.5815 46.6156L15.8716 51.9539L14.1616 46.6156H10.429L14.0574 57.0837H17.0497L18.8639 51.9539L20.6781 57.0837H23.6705L27.2989 46.6156H23.5558L21.8459 51.9539L20.1464 46.6156H17.5815ZM32.314 46.6156H28.6856V57.0837H32.314V46.6156ZM32.5329 43.5294C32.5329 42.9872 32.3348 42.5389 31.9491 42.1635C31.5633 41.7882 31.0837 41.6005 30.4998 41.6005C29.9159 41.6005 29.4259 41.7882 29.0401 42.1635C28.6543 42.5389 28.4666 42.9872 28.4666 43.5294C28.4666 44.0715 28.6543 44.5199 29.0401 44.8952C29.4259 45.2706 29.9159 45.4583 30.4998 45.4583C31.0837 45.4583 31.5633 45.2706 31.9491 44.8952C32.3348 44.5199 32.5329 44.0715 32.5329 43.5294ZM36.2656 45.4478C36.2656 45.8753 36.1405 46.209 35.9111 46.4592C35.6713 46.7094 35.3585 46.8345 34.9727 46.8345H34.222V50.0354H35.8277V53.2363C35.8277 54.5709 36.1613 55.5719 36.8078 56.26C37.4646 56.9481 38.3821 57.2922 39.5603 57.2922C40.3527 57.3026 41.0617 57.1984 41.6977 56.9794V53.8828L41.5622 53.9245C41.4683 53.9662 41.3328 54.0079 41.1556 54.0392C40.9783 54.0809 40.8011 54.0913 40.6238 54.0913C40.2693 54.0913 39.9878 53.9975 39.7793 53.8098C39.5707 53.6221 39.4561 53.3615 39.4561 53.0382V50.0459H41.5935V46.845H39.4561V43.6441H36.2552L36.2656 45.4478ZM47.7867 42.1322H44.1584V57.0837H47.7867V51.8496C47.7867 51.224 47.9431 50.734 48.2664 50.3691C48.5791 50.0146 48.9962 49.8269 49.4967 49.8269C49.9346 49.8269 50.2891 49.9833 50.5706 50.2857C50.8417 50.5985 50.9876 51.0155 50.9876 51.5368V57.0837H54.616V50.8904C54.616 49.5558 54.2511 48.4819 53.5421 47.6478C52.8227 46.8241 51.9052 46.4071 50.7791 46.4071C50.2057 46.4071 49.6635 46.553 49.1422 46.8241C48.6208 47.1056 48.2768 47.3246 48.1308 47.4914C47.9848 47.6582 47.8701 47.7938 47.7867 47.9085V42.1322Z" fill="#FCDF51"/>
<path d="M68.9315 53.8828C68.1703 53.8828 67.5135 53.6013 66.9713 53.0174C66.4291 52.4439 66.158 51.7349 66.158 50.8904V42.1322H62.1022V50.8904C62.1022 52.7672 62.7486 54.3415 64.0415 55.6136C65.3343 56.8856 66.9609 57.5112 68.9315 57.5112C70.8916 57.5112 72.5286 56.8856 73.8214 55.6136C75.1143 54.3415 75.7607 52.7672 75.7607 50.8904V42.1322H71.7049V50.8904C71.7049 51.7349 71.4234 52.4439 70.8812 53.0174C70.339 53.6013 69.6822 53.8828 68.9315 53.8828ZM85.6971 51.1094L89.534 46.6156H85.3739L82.2772 50.2544V42.1322H78.6488V57.0837H82.2772V54.4145L83.2365 53.351L85.6971 57.0837H89.6487L85.6971 51.1094ZM97.7604 50.2544V46.5113H97.3329C96.7595 46.5113 96.2277 46.6469 95.7273 46.8971C95.2268 47.1578 94.914 47.3663 94.768 47.5227C94.6221 47.6791 94.5178 47.8042 94.4448 47.898V46.6156H90.8164V57.0837H94.4448V52.6003C94.4448 51.7662 94.6429 51.1302 95.0391 50.6923C95.4353 50.2544 95.9775 50.0354 96.6865 50.0354C97.114 50.0459 97.4685 50.1189 97.7604 50.2544ZM108.427 57.0837V50.588C108.427 49.4411 107.968 48.4611 107.071 47.6374C106.164 46.8241 105.017 46.4071 103.62 46.4071C103.067 46.4071 102.536 46.4905 102.025 46.6364C101.524 46.7824 101.107 46.9492 100.794 47.1265C100.482 47.3037 100.19 47.5018 99.9187 47.7312C99.6476 47.9606 99.4808 48.1274 99.4078 48.2213C99.3452 48.3151 99.2827 48.3881 99.241 48.4402L101.055 50.3587L101.305 50.0771C101.472 49.9103 101.743 49.7435 102.119 49.5558C102.494 49.3786 102.89 49.2847 103.297 49.2847C103.776 49.2847 104.152 49.3994 104.402 49.608C104.663 49.8269 104.788 50.0771 104.788 50.3587L101.795 50.9947C100.774 51.2136 99.9917 51.6098 99.4286 52.1833C98.876 52.7463 98.5945 53.4657 98.5945 54.3207C98.5945 55.1444 98.9177 55.8429 99.5642 56.4268C100.211 57.0107 101.024 57.3026 102.014 57.3026C102.557 57.3026 103.067 57.1671 103.547 56.9169C104.027 56.6666 104.329 56.4581 104.475 56.3017C104.621 56.1349 104.725 56.0098 104.788 55.9159V57.0941L108.427 57.0837ZM103.193 54.5292C102.557 54.5292 102.233 54.2373 102.223 53.6743C102.223 53.4657 102.317 53.2676 102.504 53.0799C102.692 52.8923 102.921 52.7672 103.193 52.715L104.788 52.3918V52.715C104.788 53.2363 104.631 53.6743 104.319 54.0183C104.006 54.352 103.63 54.5292 103.193 54.5292ZM114.724 46.6156H111.096V57.0837H114.724V46.6156ZM114.943 43.5294C114.943 42.9872 114.745 42.5389 114.359 42.1635C113.973 41.7882 113.494 41.6005 112.91 41.6005C112.326 41.6005 111.836 41.7882 111.45 42.1635C111.064 42.5389 110.877 42.9872 110.877 43.5294C110.877 44.0715 111.064 44.5199 111.45 44.8952C111.836 45.2706 112.326 45.4583 112.91 45.4583C113.494 45.4583 113.973 45.2706 114.359 44.8952C114.745 44.5199 114.943 44.0715 114.943 43.5294ZM121.022 46.6156H117.393V57.0837H121.022V51.8496C121.022 51.224 121.178 50.734 121.501 50.3691C121.814 50.0146 122.231 49.8269 122.732 49.8269C123.17 49.8269 123.524 49.9833 123.806 50.2857C124.077 50.5985 124.223 51.0155 124.223 51.5368V57.0837H127.851V50.8904C127.851 49.5558 127.486 48.4819 126.777 47.6478C126.058 46.8241 125.14 46.4071 124.014 46.4071C123.441 46.4071 122.898 46.553 122.377 46.8241C121.856 47.1056 121.512 47.3246 121.366 47.4914C121.22 47.6582 121.105 47.7938 121.022 47.9085V46.6156ZM140.78 52.8089L140.884 51.6411C140.884 50.1918 140.352 48.9615 139.31 47.9397C138.267 46.918 136.974 46.4071 135.441 46.4071C133.898 46.4071 132.595 46.9492 131.511 48.0127C130.426 49.0762 129.884 50.3587 129.884 51.8496C129.884 53.3615 130.426 54.6439 131.531 55.7074C132.637 56.7709 134.003 57.2922 135.65 57.2922C136.161 57.2922 136.661 57.2401 137.162 57.1254C137.662 57.0211 138.069 56.896 138.382 56.75C138.694 56.6041 138.997 56.4477 139.289 56.26C139.57 56.0723 139.758 55.9472 139.841 55.8742C139.925 55.8012 139.987 55.7387 140.029 55.697L138.434 53.351L138.173 53.6221C137.996 53.7994 137.714 53.9766 137.318 54.1539C136.922 54.3311 136.505 54.4145 136.067 54.4145C135.379 54.4145 134.805 54.2581 134.367 53.9245C133.93 53.5908 133.679 53.2259 133.627 52.8089H140.78ZM135.441 49.1805C135.911 49.1805 136.307 49.3264 136.62 49.608C136.932 49.8895 137.141 50.244 137.256 50.6819H133.627C133.731 50.244 133.95 49.879 134.263 49.5975C134.576 49.3264 134.962 49.1805 135.441 49.1805Z" fill="#FDFDFD"/>
</svg>
