<svg width="13" height="18" viewBox="0 0 13 18" fill="none" xmlns="http://www.w3.org/2000/svg">
<path d="M6.24172 0.273926C2.84686 0.273926 0.0849609 3.03583 0.0849609 6.43065C0.0849609 10.6437 5.59465 16.8288 5.82923 17.09C6.04957 17.3354 6.43426 17.335 6.6542 17.09C6.88878 16.8288 12.3985 10.6437 12.3985 6.43065C12.3984 3.03583 9.63653 0.273926 6.24172 0.273926ZM6.24172 15.8704C4.38742 13.6678 1.19368 9.32217 1.19368 6.43071C1.19368 3.64716 3.4582 1.38264 6.24172 1.38264C9.02523 1.38264 11.2898 3.64716 11.2898 6.43068C11.2897 9.32227 8.09647 13.6671 6.24172 15.8704Z" fill="#5E5E5E"/>
<path d="M6.24212 3.33301C4.53408 3.33301 3.14453 4.72259 3.14453 6.43063C3.14453 8.13866 4.53412 9.52824 6.24212 9.52824C7.95012 9.52824 9.33967 8.13866 9.33967 6.43063C9.33967 4.72259 7.95012 3.33301 6.24212 3.33301ZM6.24212 8.41953C5.14542 8.41953 4.25325 7.52733 4.25325 6.43063C4.25325 5.33393 5.14545 4.44173 6.24212 4.44173C7.33878 4.44173 8.23098 5.33393 8.23098 6.43063C8.23098 7.52733 7.33878 8.41953 6.24212 8.41953Z" fill="#5E5E5E"/>
</svg>
