<svg width="44" height="43" viewBox="0 0 44 43" fill="none" xmlns="http://www.w3.org/2000/svg">
<path d="M21.845 42.9293C16.1264 42.9293 10.7499 40.7023 6.70622 36.6586C2.66254 32.615 0.435547 27.2384 0.435547 21.5198C0.435547 15.8013 2.66254 10.4247 6.70622 6.38103C10.7499 2.33735 16.1264 0.110352 21.845 0.110352C27.5636 0.110352 32.9402 2.33735 36.9838 6.38103C41.0275 10.4247 43.2545 15.8013 43.2545 21.5198C43.2545 25.7458 42.0004 29.8558 39.627 33.4052C39.1138 34.1732 38.075 34.3794 37.3069 33.8662C36.5392 33.3526 36.3328 32.3138 36.8463 31.5461C38.8502 28.5484 39.9093 25.0817 39.9093 21.5198C39.9093 11.5593 31.8056 3.45558 21.845 3.45558C11.8845 3.45558 3.78078 11.5593 3.78078 21.5198C3.78078 31.4804 11.8845 39.5841 21.845 39.5841C25.1488 39.5841 28.3803 38.6844 31.1898 36.9827C31.9797 36.5041 33.0081 36.7566 33.487 37.5469C33.9656 38.3368 33.7131 39.3655 32.9228 39.8438C29.5907 41.8624 25.76 42.9293 21.845 42.9293ZM20.0267 29.4056L28.365 24.575C29.4665 23.9366 30.1245 22.7945 30.1245 21.5198C30.1245 20.2451 29.4665 19.103 28.3646 18.4647L20.0267 13.634C18.9242 12.9954 17.6066 12.9937 16.5028 13.6301C15.3966 14.2675 14.7364 15.4112 14.7364 16.6892V26.3505C14.7364 27.6285 15.3966 28.7722 16.5028 29.4095C17.0539 29.7271 17.6576 29.8855 18.2613 29.8855C18.8676 29.8859 19.4743 29.7258 20.0267 29.4056ZM18.3499 16.5284L26.6878 21.3591C26.7129 21.3738 26.7792 21.412 26.7792 21.5198C26.7792 21.6276 26.7129 21.6659 26.6878 21.6806L18.3499 26.5112C18.3234 26.5262 18.2616 26.5622 18.1734 26.5112C18.0816 26.4583 18.0816 26.3828 18.0816 26.3505V16.6892C18.0816 16.6568 18.0816 16.5814 18.1734 16.5284C18.2074 16.5088 18.2375 16.5023 18.263 16.5023C18.3038 16.502 18.3335 16.5193 18.3499 16.5284Z" fill="white"/>
</svg>
