<svg width="41" height="41" viewBox="0 0 41 41" fill="none" xmlns="http://www.w3.org/2000/svg">
<circle cx="20.7119" cy="20.1732" r="20" fill="#E8F5FD"/>
<path d="M17.7911 26.6238C23.7216 26.6238 26.9658 21.6591 26.9658 17.3613C26.9658 17.2224 26.9658 17.0815 26.96 16.9426C27.5916 16.4806 28.1367 15.9087 28.5698 15.2536C27.9798 15.5164 27.3546 15.6896 26.7144 15.7676C27.3887 15.3604 27.8938 14.7197 28.1357 13.9645C27.5021 14.3437 26.8087 14.6099 26.0858 14.7515C25.5998 14.2285 24.9566 13.8821 24.256 13.7658C23.5554 13.6496 22.8364 13.77 22.2103 14.1084C21.5843 14.4468 21.0862 14.9843 20.7931 15.6377C20.5001 16.2911 20.4285 17.0239 20.5894 17.7225C19.3073 17.6576 18.0531 17.3211 16.9081 16.7349C15.7631 16.1487 14.7528 15.3259 13.9428 14.3198C13.5316 15.0373 13.4061 15.8861 13.5918 16.6937C13.7775 17.5014 14.2605 18.2073 14.9427 18.6682C14.4315 18.6507 13.9315 18.512 13.4831 18.2634V18.308C13.484 19.0597 13.7417 19.788 14.2128 20.3698C14.6838 20.9517 15.3392 21.3514 16.0683 21.5014C15.7915 21.5784 15.5057 21.6168 15.2187 21.6155C15.0163 21.6161 14.8144 21.5972 14.6156 21.5589C14.8216 22.206 15.2229 22.7717 15.763 23.1769C16.3032 23.5821 16.9553 23.8064 17.628 23.8185C16.4853 24.7253 15.0737 25.2171 13.6206 25.2147C13.3646 25.2158 13.1087 25.2009 12.8545 25.17C14.3293 26.12 16.042 26.6243 17.7911 26.6238Z" fill="#1D9BF0"/>
</svg>
