<svg width="41" height="41" viewBox="0 0 41 41" fill="none" xmlns="http://www.w3.org/2000/svg">
<circle cx="20.5273" cy="20.4165" r="20" fill="#E8F5FD"/>
<path d="M29.815 23.5484C30.1685 22.5364 30.3613 21.4498 30.3613 20.3187C30.3613 19.1876 30.1685 18.101 29.815 17.0891C29.8063 17.0587 29.7961 17.029 29.7837 17.0005C28.4202 13.2155 24.7935 10.5017 20.5444 10.5017C16.2954 10.5017 12.6686 13.2155 11.3052 17.0005C11.2928 17.0291 11.2825 17.0587 11.2739 17.0891C10.9204 18.101 10.7275 19.1876 10.7275 20.3187C10.7275 21.4498 10.9204 22.5364 11.2739 23.5484C11.2826 23.5787 11.2928 23.6084 11.3052 23.6369C12.6687 27.422 16.2954 30.1357 20.5444 30.1357C24.7935 30.1357 28.4202 27.422 29.7837 23.6369C29.7961 23.6084 29.8063 23.5788 29.815 23.5484ZM20.5444 28.7285C20.1706 28.7285 19.5678 28.0519 19.064 26.5404C18.8208 25.8109 18.6262 24.9724 18.4843 24.0602H22.6046C22.4627 24.9724 22.268 25.8108 22.025 26.5404C21.5211 28.0519 20.9183 28.7285 20.5444 28.7285ZM18.3136 22.653C18.2459 21.9026 18.2102 21.1198 18.2102 20.3187C18.2102 19.5176 18.2459 18.7348 18.3136 17.9844H22.7752C22.8429 18.7348 22.8786 19.5176 22.8786 20.3187C22.8786 21.1198 22.8429 21.9026 22.7752 22.653H18.3136ZM12.1347 20.3188C12.1347 19.5092 12.25 18.726 12.4646 17.9845H16.9021C16.8363 18.7504 16.8029 19.5352 16.8029 20.3188C16.8029 21.1024 16.8362 21.8872 16.9021 22.6531H12.4646C12.25 21.9115 12.1347 21.1284 12.1347 20.3188ZM20.5444 11.909C20.9183 11.909 21.5212 12.5856 22.025 14.0971C22.268 14.8266 22.4628 15.6651 22.6046 16.5772H18.4842C18.6261 15.665 18.8207 14.8266 19.0639 14.0971C19.5678 12.5856 20.1706 11.909 20.5444 11.909ZM24.1867 17.9845H28.6242C28.8388 18.726 28.9541 19.5092 28.9541 20.3188C28.9541 21.1284 28.8388 21.9116 28.6242 22.6531H24.1867C24.2525 21.8872 24.2859 21.1024 24.2859 20.3188C24.2859 19.5352 24.2525 18.7504 24.1867 17.9845ZM28.0744 16.5773H24.0252C23.7749 14.8513 23.3455 13.3029 22.7431 12.2013C25.0787 12.8345 27.0137 14.451 28.0744 16.5773ZM18.3457 12.2012C17.7433 13.3028 17.3139 14.8512 17.0636 16.5773H13.0144C14.0752 14.451 16.0101 12.8345 18.3457 12.2012ZM13.0144 24.0602H17.0636C17.3139 25.7862 17.7433 27.3346 18.3457 28.4363C16.0101 27.803 14.0752 26.1866 13.0144 24.0602ZM22.7431 28.4363C23.3455 27.3347 23.7749 25.7863 24.0252 24.0602H28.0744C27.0137 26.1866 25.0787 27.803 22.7431 28.4363Z" fill="#1D9BF0"/>
</svg>
